<?xml version="1.0" encoding="UTF-8" standalone="no"?>
<!-- Created with Inkscape (http://www.inkscape.org/) -->

<svg
   width="43.961002mm"
   height="8.9958067mm"
   viewBox="0 0 43.961003 8.9958067"
   version="1.1"
   id="svg1"
   inkscape:version="1.4.2 (ebf0e94, 2025-05-08)"
   sodipodi:docname="panam.svg"
   xmlns:inkscape="http://www.inkscape.org/namespaces/inkscape"
   xmlns:sodipodi="http://sodipodi.sourceforge.net/DTD/sodipodi-0.dtd"
   xmlns="http://www.w3.org/2000/svg"
   xmlns:svg="http://www.w3.org/2000/svg">
  <sodipodi:namedview
     id="namedview1"
     pagecolor="#505050"
     bordercolor="#eeeeee"
     borderopacity="1"
     inkscape:showpageshadow="0"
     inkscape:pageopacity="0"
     inkscape:pagecheckerboard="0"
     inkscape:deskcolor="#d1d1d1"
     inkscape:document-units="mm"
     showgrid="true"
     inkscape:zoom="5.2194127"
     inkscape:cx="60.447414"
     inkscape:cy="27.397719"
     inkscape:window-width="1920"
     inkscape:window-height="1008"
     inkscape:window-x="0"
     inkscape:window-y="0"
     inkscape:window-maximized="1"
     inkscape:current-layer="layer1">
    <inkscape:grid
       id="grid1"
       units="px"
       originx="-3.4397265"
       originy="-0.7937767"
       spacingx="0.26458333"
       spacingy="0.26458334"
       empcolor="#0099e5"
       empopacity="0.30196078"
       color="#0099e5"
       opacity="0.14901961"
       empspacing="5"
       enabled="true"
       visible="true"
       snapvisiblegridlinesonly="true"
       dotted="false" />
  </sodipodi:namedview>
  <defs
     id="defs1" />
  <g
     inkscape:label="Calque 1"
     inkscape:groupmode="layer"
     id="layer1"
     transform="translate(-3.4397264,-0.7937767)">
    <path
       d="m 10.056145,3.593044 c 0,-2.2266825 -1.781346,-2.78653408 -3.8553417,-2.78653408 H 3.439717 V 9.7895832 H 5.4246454 V 6.634056 h 0.9161208 c 1.5395919,0 3.7153788,-0.4326125 3.7153788,-3.041012 z M 8.0457688,3.720283 c 0,1.1578749 -0.9670164,1.3869051 -1.7050026,1.3869051 H 5.4246454 V 2.3461018 h 0.890673 c 0.6616428,0 1.7304504,0.1526868 1.7304504,1.3741812 z M 18.148524,9.7895832 14.954825,0.79378602 H 12.804486 L 9.6235114,9.7895832 h 1.9594806 l 0.559852,-1.7050026 h 3.320937 l 0.559852,1.7050026 z M 14.980273,6.5958843 H 12.639076 L 13.40251,4.2419629 c 0.190858,-0.5725755 0.368993,-1.3105617 0.407164,-1.6413831 h 0.02545 c 0.03817,0.3308214 0.190859,1.0688076 0.381717,1.6413831 z m 11.97318,3.1936989 V 0.80650992 H 25.121212 V 6.8758101 h -0.02545 C 25.044868,6.6595038 24.752219,6.137824 24.26871,5.4380095 L 21.087735,0.80650992 H 19.268218 V 9.7895832 h 1.844965 v -5.84027 h 0.02545 c 0.07634,0.2035824 0.318098,0.7507101 0.776158,1.3741812 l 3.231871,4.4660888 z m 9.644711,0 -3.193699,-8.99579718 H 31.254126 L 28.073151,9.7895832 h 1.959481 l 0.559851,-1.7050026 h 3.320938 l 0.559852,1.7050026 z M 33.429913,6.5958843 h -2.341198 l 0.763434,-2.3539214 c 0.190859,-0.5725755 0.368994,-1.3105617 0.407165,-1.6413831 h 0.02545 c 0.03817,0.3308214 0.190859,1.0688076 0.381717,1.6413831 z M 47.400746,9.7895832 47.044477,0.80650992 H 44.779622 L 42.934657,6.2523391 C 42.743799,6.8121906 42.629283,7.2320793 42.578388,7.4992812 H 42.55294 C 42.514768,7.2448032 42.400253,6.7994667 42.196671,6.2523391 L 40.224466,0.80650992 h -2.25213 L 37.666962,9.7895832 h 1.730451 L 39.5501,4.5600604 c 0.01272,-0.3562692 0,-0.8016057 -0.01272,-1.0815315 h 0.02545 c 0.03817,0.2672019 0.178134,0.8525013 0.330821,1.2596661 l 1.844965,5.0513882 h 1.412353 L 44.983205,4.7509189 C 45.161339,4.2674107 45.301302,3.720283 45.339474,3.4276333 h 0.02545 c 0,0.2290302 -0.02545,0.8270535 -0.01272,1.1833227 l 0.127239,5.1786272 z"
       id="text1"
       style="font-weight:bold;font-size:12.7239px;font-family:'Parisine Std';-inkscape-font-specification:'Parisine Std, Bold';text-align:end;letter-spacing:0px;text-anchor:end;fill:#ffa500;stroke-width:0.5;stroke-linejoin:round;paint-order:markers stroke fill"
       aria-label="PANAM" />
  </g>
</svg>
