<?xml version="1.0" encoding="UTF-8" standalone="no"?>
<!-- Generator: Adobe Illustrator 26.3.1, SVG Export Plug-In . SVG Version: 6.00 Build 0)  -->

<svg
   version="1.1"
   id="Layer_1"
   x="0px"
   y="0px"
   viewBox="0 0 283.5 283.5"
   style="enable-background:new 0 0 283.5 283.5;"
   xml:space="preserve"
   sodipodi:docname="RER_CDGX_couleur_RVB.svg"
   inkscape:version="1.2.2 (b0a8486541, 2022-12-01)"
   xmlns:inkscape="http://www.inkscape.org/namespaces/inkscape"
   xmlns:sodipodi="http://sodipodi.sourceforge.net/DTD/sodipodi-0.dtd"
   xmlns="http://www.w3.org/2000/svg"
   xmlns:svg="http://www.w3.org/2000/svg"><defs
   id="defs203057">
	
	
</defs><sodipodi:namedview
   id="namedview203055"
   pagecolor="#505050"
   bordercolor="#eeeeee"
   borderopacity="1"
   inkscape:showpageshadow="0"
   inkscape:pageopacity="0"
   inkscape:pagecheckerboard="0"
   inkscape:deskcolor="#d1d1d1"
   showgrid="false"
   inkscape:zoom="2.1453428"
   inkscape:cx="42.184401"
   inkscape:cy="122.125"
   inkscape:window-width="1920"
   inkscape:window-height="1008"
   inkscape:window-x="0"
   inkscape:window-y="0"
   inkscape:window-maximized="1"
   inkscape:current-layer="Layer_1" />
<style
   type="text/css"
   id="style203046">
	.st0{fill:#3C91DC;}
	.st1{fill:#FFFFFF;}
</style>

<g
   id="g206889"><g
     id="g206876"><path
       class="st0"
       d="M 219.7,283.5 H 63.8 C 28.6,283.5 0,254.9 0,219.7 V 63.8 C 0,28.6 28.6,0 63.8,0 h 155.9 c 35.2,0 63.8,28.6 63.8,63.8 v 155.9 c 0,35.2 -28.6,63.8 -63.8,63.8"
       id="path203048"
       style="fill:#0a0082;fill-opacity:1" /><g
       aria-label="CDG"
       id="text194022"
       style="font-size:119.637px;font-family:'IDF Voyageur';-inkscape-font-specification:'IDF Voyageur';text-align:center;letter-spacing:-1.1216px;text-anchor:middle;fill:#ffffff;stroke-width:9.33301;stroke-linejoin:round;stroke-dashoffset:9.333;paint-order:markers stroke fill"><path
         d="m 69.893055,132.83005 q -19.979379,0 -31.464532,-11.72442 -11.365515,-11.72443 -11.365515,-33.019815 0,-21.893571 11.844063,-35.053641 11.844064,-13.279708 32.301991,-13.279708 13.518981,0 22.73103,4.78548 V 62.483497 Q 84.967317,56.38201 71.926884,56.38201 q -12.202974,0 -18.783009,7.776405 -6.580035,7.776405 -6.580035,22.013208 0,14.715347 6.819309,22.491757 6.819309,7.65677 19.14192,7.65677 10.76733,0 21.415023,-5.98185 v 16.86881 q -8.972775,5.62294 -24.047037,5.62294 z"
         style="font-weight:600;font-stretch:condensed;-inkscape-font-specification:'IDF Voyageur Semi-Bold Condensed'"
         id="path205927" /><path
         d="m 105.61972,131.39441 v -90.2063 h 27.87542 q 9.81023,0 17.34737,2.273103 7.53713,2.153466 13.39934,7.058583 5.98185,4.785481 9.09241,13.399345 3.11056,8.494227 3.11056,20.457927 0,22.850662 -10.88696,34.814372 -10.76733,11.84406 -30.74671,12.20297 z m 26.2005,-74.294578 h -7.7764 v 58.382858 h 8.7335 q 24.16667,0 24.16667,-29.19143 0,-15.55281 -5.74257,-22.372119 -5.74258,-6.819309 -19.3812,-6.819309 z"
         style="font-weight:600;font-stretch:condensed;-inkscape-font-specification:'IDF Voyageur Semi-Bold Condensed'"
         id="path205929" /><path
         d="m 225.80993,132.83005 q -20.21865,0 -31.22526,-11.72442 -11.0066,-11.72443 -11.0066,-33.139452 0,-22.491756 11.9637,-35.292916 12.08334,-12.920796 33.01981,-12.920796 14.95463,0 25.36305,5.503302 v 18.184825 q -11.12625,-7.537131 -25.00414,-7.537131 -11.84406,0 -18.90264,7.896042 -7.05859,7.776405 -7.05859,22.252482 0,14.236804 6.58004,22.611394 6.58003,8.37459 18.66337,8.37459 5.26403,0 9.92987,-0.9571 V 95.264035 H 225.33138 V 79.950499 H 256.437 v 46.060241 q -12.68152,6.81931 -30.62707,6.81931 z"
         style="font-weight:600;font-stretch:condensed;-inkscape-font-specification:'IDF Voyageur Semi-Bold Condensed'"
         id="path205931" /></g><g
       aria-label="Exp."
       id="text197032"
       style="font-size:119.637px;font-family:'IDF Voyageur';-inkscape-font-specification:'IDF Voyageur';text-align:center;letter-spacing:-1.1216px;text-anchor:middle;fill:#ff1400;stroke-width:9.33301;stroke-linejoin:round;stroke-dashoffset:9.333;paint-order:markers stroke fill"><path
         d="m 39.476622,238.46446 v -90.2063 h 53.118829 v 15.91172 h -34.69473 v 20.81684 h 28.473606 v 15.67245 H 57.900721 v 21.89357 h 35.651826 v 15.91172 z"
         style="font-weight:600;font-stretch:condensed;-inkscape-font-specification:'IDF Voyageur Semi-Bold Condensed'"
         id="path205918" /><path
         d="M 96.498676,238.46446 118.51188,206.64102 97.695046,173.38193 h 19.859744 l 10.28878,18.78301 11.24588,-18.78301 h 17.70627 l -21.65429,31.58417 20.93647,33.49836 h -19.97938 l -10.28878,-18.78301 -11.12624,18.78301 z"
         style="font-weight:600;font-stretch:condensed;-inkscape-font-specification:'IDF Voyageur Semi-Bold Condensed'"
         id="path205920" /><path
         d="m 180.55868,265.02388 h -16.86882 v -73.81603 l -2.39274,-17.82592 h 16.50991 l 1.19637,5.86222 q 6.93894,-7.29786 17.34736,-7.29786 11.9637,0 18.54374,8.61386 6.58003,8.61387 6.58003,24.40595 0,16.39027 -6.93894,25.60232 -6.81931,9.21205 -19.02229,9.21205 -8.85314,0 -14.95462,-5.26403 z m 10.40842,-79.08006 q -5.74258,0 -10.40842,4.42657 v 31.94308 q 4.30693,3.82838 10.04951,3.82838 12.80116,0 12.80116,-20.33829 0,-19.85974 -12.44225,-19.85974 z"
         style="font-weight:600;font-stretch:condensed;-inkscape-font-specification:'IDF Voyageur Semi-Bold Condensed'"
         id="path205922" /><path
         d="m 229.68461,238.46446 v -20.45792 h 18.90265 v 20.45792 z"
         style="font-weight:600;font-stretch:condensed;-inkscape-font-specification:'IDF Voyageur Semi-Bold Condensed'"
         id="path205924" /></g></g></g><text
   xml:space="preserve"
   style="font-size:119.637px;font-family:'IDF Voyageur';-inkscape-font-specification:'IDF Voyageur';text-align:center;letter-spacing:-1.1216px;text-anchor:middle;fill:#ffffff;fill-opacity:1;stroke:none;stroke-width:9.33301;stroke-linejoin:round;stroke-dashoffset:9.333;paint-order:markers stroke fill"
   x="-137.41254"
   y="131.39441"
   id="text205912"><tspan
     sodipodi:role="line"
     id="tspan205910"
     style="font-style:normal;font-variant:normal;font-weight:600;font-stretch:condensed;font-family:'IDF Voyageur';-inkscape-font-specification:'IDF Voyageur Semi-Bold Condensed';fill:#ffffff;fill-opacity:1;stroke:none;stroke-width:9.33301"
     x="-137.97333"
     y="131.39441">CDG</tspan></text><text
   xml:space="preserve"
   style="font-size:119.637px;font-family:'IDF Voyageur';-inkscape-font-specification:'IDF Voyageur';text-align:center;letter-spacing:-1.1216px;text-anchor:middle;fill:#ff1400;fill-opacity:1;stroke:none;stroke-width:9.33301;stroke-linejoin:round;stroke-dashoffset:9.333;paint-order:markers stroke fill"
   x="-137.10464"
   y="238.46446"
   id="text205916"><tspan
     sodipodi:role="line"
     id="tspan205914"
     style="font-style:normal;font-variant:normal;font-weight:600;font-stretch:condensed;font-family:'IDF Voyageur';-inkscape-font-specification:'IDF Voyageur Semi-Bold Condensed';fill:#ff1400;fill-opacity:1;stroke:none;stroke-width:9.33301"
     x="-137.66544"
     y="238.46446">Exp.</tspan></text></svg>
