<?xml version="1.0" encoding="UTF-8" standalone="no"?>
<!-- Uploaded to: SVG Repo, www.svgrepo.com, Transformed by: SVG Repo Mixer Tools -->

<svg
   fill="#ffffff"
   width="800px"
   height="800px"
   viewBox="-5.2 -5.2 62.40 62.40"
   enable-background="new 0 0 52 52"
   xml:space="preserve"
   stroke="#ffffff"
   version="1.1"
   id="svg201"
   sodipodi:docname="sortie2.svg"
   inkscape:version="1.4.2 (ebf0e94, 2025-05-08)"
   xmlns:inkscape="http://www.inkscape.org/namespaces/inkscape"
   xmlns:sodipodi="http://sodipodi.sourceforge.net/DTD/sodipodi-0.dtd"
   xmlns="http://www.w3.org/2000/svg"
   xmlns:svg="http://www.w3.org/2000/svg"><defs
   id="defs205" /><sodipodi:namedview
   id="namedview203"
   pagecolor="#505050"
   bordercolor="#eeeeee"
   borderopacity="1"
   inkscape:showpageshadow="0"
   inkscape:pageopacity="0"
   inkscape:pagecheckerboard="0"
   inkscape:deskcolor="#d1d1d1"
   showgrid="false"
   inkscape:zoom="0.37291066"
   inkscape:cx="274.86477"
   inkscape:cy="439.78363"
   inkscape:window-width="1920"
   inkscape:window-height="1008"
   inkscape:window-x="0"
   inkscape:window-y="0"
   inkscape:window-maximized="1"
   inkscape:current-layer="svg201"
   showguides="true" />

<g
   id="SVGRepo_bgCarrier"
   stroke-width="0">

<rect
   x="-5.1999998"
   y="-5.1999998"
   width="62.400002"
   height="62.400002"
   rx="0"
   fill="#0a0082"
   strokewidth="0"
   id="rect190" />

</g>

<g
   id="SVGRepo_tracerCarrier"
   stroke-linecap="round"
   stroke-linejoin="round" />



<path
   d="M 40.150598,46.813072 V 39.855721 H 22.993062 c 0.530646,-2.417384 4.716849,-6.072942 6.83943,-8.018642 5.011651,-4.539966 9.551618,-7.90072 9.551618,-15.034953 0,-8.4903268 -6.898391,-12.7354901 -14.209505,-12.7354901 -5.601257,0 -9.315775,1.6508968 -13.325096,5.1295724 l 4.363084,5.7781387 c 1.002331,-1.120251 3.537636,-3.773478 7.193194,-3.773478 4.539966,0 6.89839,3.00699 6.89839,6.603587 0,4.009321 -3.006991,7.016312 -5.778139,9.433696 -5.542296,4.83477 -10.318105,9.256815 -11.379396,14.091584 v 5.483336 z"
   id="text1"
   style="font-weight:bold;font-size:58.9606px;font-family:'Parisine Std';-inkscape-font-specification:'Parisine Std, Bold';letter-spacing:-0.0117px;stroke:none;stroke-width:0.294803;stroke-linejoin:round;stroke-dasharray:0.663307, 0.265322;paint-order:markers stroke fill"
   aria-label="2" /></svg>
