<?xml version="1.0" encoding="UTF-8" standalone="no"?>
<!-- Uploaded to: SVG Repo, www.svgrepo.com, Transformed by: SVG Repo Mixer Tools -->

<svg
   fill="#ffffff"
   width="800px"
   height="800px"
   viewBox="-5.2 -5.2 62.40 62.40"
   enable-background="new 0 0 52 52"
   xml:space="preserve"
   stroke="#ffffff"
   version="1.1"
   id="svg201"
   sodipodi:docname="sortie10.svg"
   inkscape:version="1.2.2 (b0a8486541, 2022-12-01)"
   xmlns:inkscape="http://www.inkscape.org/namespaces/inkscape"
   xmlns:sodipodi="http://sodipodi.sourceforge.net/DTD/sodipodi-0.dtd"
   xmlns="http://www.w3.org/2000/svg"
   xmlns:svg="http://www.w3.org/2000/svg"><defs
   id="defs205" /><sodipodi:namedview
   id="namedview203"
   pagecolor="#505050"
   bordercolor="#eeeeee"
   borderopacity="1"
   inkscape:showpageshadow="0"
   inkscape:pageopacity="0"
   inkscape:pagecheckerboard="0"
   inkscape:deskcolor="#d1d1d1"
   showgrid="false"
   inkscape:zoom="0.28981731"
   inkscape:cx="-571.0494"
   inkscape:cy="424.40529"
   inkscape:window-width="1920"
   inkscape:window-height="1008"
   inkscape:window-x="0"
   inkscape:window-y="0"
   inkscape:window-maximized="1"
   inkscape:current-layer="svg201"
   showguides="true" />

<g
   id="SVGRepo_bgCarrier"
   stroke-width="0">

<rect
   x="-5.1999998"
   y="-5.1999998"
   width="62.400002"
   height="62.400002"
   rx="0"
   fill="#0a0082"
   strokewidth="0"
   id="rect190" />

</g>

<g
   id="SVGRepo_tracerCarrier"
   stroke-linecap="round"
   stroke-linejoin="round" />



<g
   aria-label="10"
   id="text1"
   style="font-weight:bold;font-size:44.2205px;font-family:'Parisine Std';-inkscape-font-specification:'Parisine Std, Bold';letter-spacing:-0.0117px;stroke:none;stroke-width:0.294803;stroke-linejoin:round;stroke-dasharray:0.663307, 0.265322;paint-order:markers stroke fill"><path
     d="M 18.289384,41.654057 V 10.434383 h -5.439121 c -3.0954352,2.343686 -7.0310598,4.42205 -10.3033768,5.792886 l 2.122584,4.775814 c 2.0783636,-0.928631 5.0853576,-2.387907 6.9868388,-3.891404 v 24.542378 z"
     id="path1307" /><path
     d="m 49.453114,25.999999 c 0,-7.207941 -1.857261,-16.4942466 -11.276228,-16.4942466 -9.418967,0 -11.45311,9.2863056 -11.45311,16.4942466 0,7.207942 1.857261,16.494247 11.276228,16.494247 9.418967,0 11.45311,-9.286305 11.45311,-16.494247 z m -6.765737,0 c 0,3.095435 -0.176882,11.276228 -4.598932,11.276228 -4.42205,0 -4.643153,-8.136572 -4.643153,-11.276228 0,-3.183876 0.132662,-11.232007 4.643153,-11.232007 4.466271,0 4.598932,7.95969 4.598932,11.232007 z"
     id="path1309" /></g></svg>
