<?xml version="1.0" encoding="UTF-8" standalone="no"?>
<!-- Uploaded to: SVG Repo, www.svgrepo.com, Transformed by: SVG Repo Mixer Tools -->

<svg
   fill="#ffffff"
   width="800px"
   height="800px"
   viewBox="-5.2 -5.2 62.40 62.40"
   enable-background="new 0 0 52 52"
   xml:space="preserve"
   stroke="#ffffff"
   version="1.1"
   id="svg201"
   sodipodi:docname="sortie8.svg"
   inkscape:version="1.2.2 (b0a8486541, 2022-12-01)"
   xmlns:inkscape="http://www.inkscape.org/namespaces/inkscape"
   xmlns:sodipodi="http://sodipodi.sourceforge.net/DTD/sodipodi-0.dtd"
   xmlns="http://www.w3.org/2000/svg"
   xmlns:svg="http://www.w3.org/2000/svg"><defs
   id="defs205" /><sodipodi:namedview
   id="namedview203"
   pagecolor="#505050"
   bordercolor="#eeeeee"
   borderopacity="1"
   inkscape:showpageshadow="0"
   inkscape:pageopacity="0"
   inkscape:pagecheckerboard="0"
   inkscape:deskcolor="#d1d1d1"
   showgrid="false"
   inkscape:zoom="0.28981731"
   inkscape:cx="-571.0494"
   inkscape:cy="424.40529"
   inkscape:window-width="1920"
   inkscape:window-height="1008"
   inkscape:window-x="0"
   inkscape:window-y="0"
   inkscape:window-maximized="1"
   inkscape:current-layer="svg201"
   showguides="true" />

<g
   id="SVGRepo_bgCarrier"
   stroke-width="0">

<rect
   x="-5.1999998"
   y="-5.1999998"
   width="62.400002"
   height="62.400002"
   rx="0"
   fill="#0a0082"
   strokewidth="0"
   id="rect190" />

</g>

<g
   id="SVGRepo_tracerCarrier"
   stroke-linecap="round"
   stroke-linejoin="round" />



<g
   aria-label="8"
   id="text1"
   style="font-weight:bold;font-size:58.9606px;font-family:'Parisine Std';-inkscape-font-specification:'Parisine Std, Bold';letter-spacing:-0.0117px;stroke:none;stroke-width:0.294803;stroke-linejoin:round;stroke-dasharray:0.663307, 0.265322;paint-order:markers stroke fill"><path
     d="m 40.68119,35.138891 c 0,-5.483335 -3.360754,-9.020972 -7.193193,-10.84875 3.891399,-2.358424 5.89606,-5.660218 5.89606,-9.551618 C 39.384057,7.6042904 33.311115,4.0076937 26,4.0076937 c -7.134233,0 -13.384056,4.7758088 -13.384056,11.6741993 0,4.304124 2.240502,7.134233 5.837099,9.374736 -4.009321,2.063621 -7.134233,5.542296 -7.134233,11.084593 0,6.308784 5.247494,11.851081 14.504308,11.851081 8.549288,0 14.858072,-4.952691 14.858072,-12.853412 z M 31.424376,15.269169 c 0,2.594266 -2.358425,5.306454 -4.539967,6.308784 -2.653227,-1.120251 -6.072942,-3.242833 -6.072942,-6.662548 0,-2.889069 2.063621,-4.89373 5.306454,-4.89373 3.419715,0 5.306455,2.358424 5.306455,5.247494 z m 0.648566,20.518289 c 0,3.301794 -2.181542,6.072942 -6.131902,6.072942 -4.009321,0 -6.249824,-3.242833 -6.249824,-6.662548 0,-3.242833 2.712187,-6.190863 5.424375,-7.252154 3.537636,1.768818 6.957351,4.068282 6.957351,7.84176 z"
     id="path1332" /></g></svg>
