<?xml version="1.0" encoding="UTF-8" standalone="no"?>
<!-- Uploaded to: SVG Repo, www.svgrepo.com, Transformed by: SVG Repo Mixer Tools -->

<svg
   fill="#ffffff"
   width="800px"
   height="800px"
   viewBox="-5.2 -5.2 62.40 62.40"
   enable-background="new 0 0 52 52"
   xml:space="preserve"
   stroke="#ffffff"
   version="1.1"
   id="svg201"
   sodipodi:docname="sortie9.svg"
   inkscape:version="1.2.2 (b0a8486541, 2022-12-01)"
   xmlns:inkscape="http://www.inkscape.org/namespaces/inkscape"
   xmlns:sodipodi="http://sodipodi.sourceforge.net/DTD/sodipodi-0.dtd"
   xmlns="http://www.w3.org/2000/svg"
   xmlns:svg="http://www.w3.org/2000/svg"><defs
   id="defs205" /><sodipodi:namedview
   id="namedview203"
   pagecolor="#505050"
   bordercolor="#eeeeee"
   borderopacity="1"
   inkscape:showpageshadow="0"
   inkscape:pageopacity="0"
   inkscape:pagecheckerboard="0"
   inkscape:deskcolor="#d1d1d1"
   showgrid="false"
   inkscape:zoom="0.28981731"
   inkscape:cx="-571.0494"
   inkscape:cy="424.40529"
   inkscape:window-width="1920"
   inkscape:window-height="1008"
   inkscape:window-x="0"
   inkscape:window-y="0"
   inkscape:window-maximized="1"
   inkscape:current-layer="svg201"
   showguides="true" />

<g
   id="SVGRepo_bgCarrier"
   stroke-width="0">

<rect
   x="-5.1999998"
   y="-5.1999998"
   width="62.400002"
   height="62.400002"
   rx="0"
   fill="#0a0082"
   strokewidth="0"
   id="rect190" />

</g>

<g
   id="SVGRepo_tracerCarrier"
   stroke-linecap="round"
   stroke-linejoin="round" />



<g
   aria-label="9"
   id="text1"
   style="font-weight:bold;font-size:58.9606px;font-family:'Parisine Std';-inkscape-font-specification:'Parisine Std, Bold';letter-spacing:-0.0117px;stroke:none;stroke-width:0.294803;stroke-linejoin:round;stroke-dasharray:0.663307, 0.265322;paint-order:markers stroke fill"><path
     d="m 40.858072,23.051969 c 0,-11.025632 -4.068282,-18.9263528 -15.447678,-18.9263528 -8.726169,0 -14.268466,6.1319028 -14.268466,14.4453478 0,7.782799 5.542297,12.322765 12.440687,12.322765 4.481006,0 7.193194,-1.591936 8.608248,-2.830108 -0.589606,8.372405 -4.834769,13.030293 -10.671869,13.030293 -2.417384,0 -4.598927,-0.530646 -5.719178,-1.002331 l -1.297133,7.075273 c 1.768818,0.412724 3.891399,0.707527 6.249824,0.707527 13.325096,0 20.105565,-10.377066 20.105565,-24.822414 z m -8.549287,-4.598927 c 0,1.238173 0,2.88907 -0.471685,3.596597 -0.825449,1.297133 -2.94803,2.299464 -5.601257,2.299464 -4.127243,0 -6.721509,-2.830109 -6.721509,-6.721509 0,-3.596597 2.122582,-6.957351 6.249824,-6.957351 4.245163,0 6.544627,3.832439 6.544627,7.782799 z"
     id="path1321" /></g></svg>
