<?xml version="1.0" encoding="UTF-8" standalone="no"?>
<!-- Uploaded to: SVG Repo, www.svgrepo.com, Transformed by: SVG Repo Mixer Tools -->

<svg
   fill="#ffffff"
   width="800px"
   height="800px"
   viewBox="-5.2 -5.2 62.40 62.40"
   enable-background="new 0 0 52 52"
   xml:space="preserve"
   stroke="#ffffff"
   version="1.1"
   id="svg201"
   sodipodi:docname="sortie12.svg"
   inkscape:version="1.2.2 (b0a8486541, 2022-12-01)"
   xmlns:inkscape="http://www.inkscape.org/namespaces/inkscape"
   xmlns:sodipodi="http://sodipodi.sourceforge.net/DTD/sodipodi-0.dtd"
   xmlns="http://www.w3.org/2000/svg"
   xmlns:svg="http://www.w3.org/2000/svg"><defs
   id="defs205" /><sodipodi:namedview
   id="namedview203"
   pagecolor="#505050"
   bordercolor="#eeeeee"
   borderopacity="1"
   inkscape:showpageshadow="0"
   inkscape:pageopacity="0"
   inkscape:pagecheckerboard="0"
   inkscape:deskcolor="#d1d1d1"
   showgrid="false"
   inkscape:zoom="0.28981731"
   inkscape:cx="-571.0494"
   inkscape:cy="424.40529"
   inkscape:window-width="1920"
   inkscape:window-height="1008"
   inkscape:window-x="0"
   inkscape:window-y="0"
   inkscape:window-maximized="1"
   inkscape:current-layer="svg201"
   showguides="true" />

<g
   id="SVGRepo_bgCarrier"
   stroke-width="0">

<rect
   x="-5.1999998"
   y="-5.1999998"
   width="62.400002"
   height="62.400002"
   rx="0"
   fill="#0a0082"
   strokewidth="0"
   id="rect190" />

</g>

<g
   id="SVGRepo_tracerCarrier"
   stroke-linecap="round"
   stroke-linejoin="round" />



<g
   aria-label="12"
   id="text1"
   style="font-weight:bold;font-size:44.2205px;font-family:'Parisine Std';-inkscape-font-specification:'Parisine Std, Bold';letter-spacing:-0.0117px;stroke:none;stroke-width:0.294803;stroke-linejoin:round;stroke-dasharray:0.663307, 0.265322;paint-order:markers stroke fill"><path
     d="M 18.908472,42.02993 V 10.810256 H 13.46935 c -3.095435,2.343687 -7.0310597,4.422051 -10.3033768,5.792886 l 2.122584,4.775814 c 2.0783636,-0.92863 5.0853578,-2.387907 6.9868388,-3.891404 V 42.02993 Z"
     id="path1279" /><path
     d="M 48.834027,42.02993 V 36.811911 H 35.965861 c 0.397985,-1.813041 3.53764,-4.554712 5.129578,-6.013988 3.758743,-3.404979 7.163721,-5.925547 7.163721,-11.276228 0,-6.367752 -5.173798,-9.5516281 -10.65714,-9.5516281 -4.200948,0 -6.98684,1.2381741 -9.993834,3.8471841 l 3.272317,4.333609 c 0.751749,-0.84019 2.65323,-2.830112 5.394902,-2.830112 3.404978,0 5.173798,2.255245 5.173798,4.952696 0,3.006994 -2.255245,5.262239 -4.333609,7.07528 -4.156727,3.626081 -7.738588,6.942618 -8.534557,10.5687 v 4.112506 z"
     id="path1281" /></g></svg>
