<?xml version="1.0" encoding="UTF-8" standalone="no"?>
<!-- Uploaded to: SVG Repo, www.svgrepo.com, Transformed by: SVG Repo Mixer Tools -->

<svg
   fill="#ffffff"
   width="800px"
   height="800px"
   viewBox="-5.2 -5.2 62.40 62.40"
   enable-background="new 0 0 52 52"
   xml:space="preserve"
   stroke="#ffffff"
   version="1.1"
   id="svg201"
   sodipodi:docname="sortie5.svg"
   inkscape:version="1.2.2 (b0a8486541, 2022-12-01)"
   xmlns:inkscape="http://www.inkscape.org/namespaces/inkscape"
   xmlns:sodipodi="http://sodipodi.sourceforge.net/DTD/sodipodi-0.dtd"
   xmlns="http://www.w3.org/2000/svg"
   xmlns:svg="http://www.w3.org/2000/svg"><defs
   id="defs205" /><sodipodi:namedview
   id="namedview203"
   pagecolor="#505050"
   bordercolor="#eeeeee"
   borderopacity="1"
   inkscape:showpageshadow="0"
   inkscape:pageopacity="0"
   inkscape:pagecheckerboard="0"
   inkscape:deskcolor="#d1d1d1"
   showgrid="false"
   inkscape:zoom="0.28981731"
   inkscape:cx="-43.130619"
   inkscape:cy="424.40529"
   inkscape:window-width="1920"
   inkscape:window-height="1008"
   inkscape:window-x="0"
   inkscape:window-y="0"
   inkscape:window-maximized="1"
   inkscape:current-layer="svg201"
   showguides="true" />

<g
   id="SVGRepo_bgCarrier"
   stroke-width="0">

<rect
   x="-5.1999998"
   y="-5.1999998"
   width="62.400002"
   height="62.400002"
   rx="0"
   fill="#0a0082"
   strokewidth="0"
   id="rect190" />

</g>

<g
   id="SVGRepo_tracerCarrier"
   stroke-linecap="round"
   stroke-linejoin="round" />



<g
   aria-label="5"
   id="text1"
   style="font-weight:bold;font-size:58.9606px;font-family:'Parisine Std';-inkscape-font-specification:'Parisine Std, Bold';letter-spacing:-0.0117px;stroke:none;stroke-width:0.294803;stroke-linejoin:round;stroke-dasharray:0.663307, 0.265322;paint-order:markers stroke fill"><path
     d="m 39.7673,32.80995 c 0,-6.249824 -4.598927,-12.676529 -15.978323,-13.207175 -0.412724,0 -0.943369,-0.05896 -1.179212,-0.05896 l 0.589606,-7.900721 H 38.175364 V 4.6857429 H 16.300981 L 14.650084,26.324284 c 1.356094,0 4.127242,0.05896 6.485666,0.05896 7.664878,0.117922 9.669539,4.245164 9.669539,7.252154 0,4.89373 -4.068282,6.83943 -7.311115,6.83943 -3.242833,0 -5.601257,-1.061291 -7.90072,-2.653227 l -3.360755,6.485666 c 3.183873,1.9457 6.898391,3.006991 11.73316,3.006991 9.492657,0 15.801441,-6.544627 15.801441,-14.504308 z"
     id="path1268" /></g></svg>
