<?xml version="1.0" encoding="UTF-8" standalone="no"?>
<!-- Uploaded to: SVG Repo, www.svgrepo.com, Transformed by: SVG Repo Mixer Tools -->

<svg
   fill="#ffffff"
   width="800px"
   height="800px"
   viewBox="-5.2 -5.2 62.40 62.40"
   enable-background="new 0 0 52 52"
   xml:space="preserve"
   stroke="#ffffff"
   version="1.1"
   id="svg201"
   sodipodi:docname="sortie3.svg"
   inkscape:version="1.2.2 (b0a8486541, 2022-12-01)"
   xmlns:inkscape="http://www.inkscape.org/namespaces/inkscape"
   xmlns:sodipodi="http://sodipodi.sourceforge.net/DTD/sodipodi-0.dtd"
   xmlns="http://www.w3.org/2000/svg"
   xmlns:svg="http://www.w3.org/2000/svg"><defs
   id="defs205" /><sodipodi:namedview
   id="namedview203"
   pagecolor="#505050"
   bordercolor="#eeeeee"
   borderopacity="1"
   inkscape:showpageshadow="0"
   inkscape:pageopacity="0"
   inkscape:pagecheckerboard="0"
   inkscape:deskcolor="#d1d1d1"
   showgrid="false"
   inkscape:zoom="0.28981731"
   inkscape:cx="-571.0494"
   inkscape:cy="424.40529"
   inkscape:window-width="1920"
   inkscape:window-height="1008"
   inkscape:window-x="0"
   inkscape:window-y="0"
   inkscape:window-maximized="1"
   inkscape:current-layer="svg201"
   showguides="true" />

<g
   id="SVGRepo_bgCarrier"
   stroke-width="0">

<rect
   x="-5.1999998"
   y="-5.1999998"
   width="62.400002"
   height="62.400002"
   rx="0"
   fill="#0a0082"
   strokewidth="0"
   id="rect190" />

</g>

<g
   id="SVGRepo_tracerCarrier"
   stroke-linecap="round"
   stroke-linejoin="round" />



<g
   aria-label="3"
   id="text1"
   style="font-weight:bold;font-size:58.9606px;font-family:'Parisine Std';-inkscape-font-specification:'Parisine Std, Bold';letter-spacing:-0.0117px;stroke:none;stroke-width:0.294803;stroke-linejoin:round;stroke-dasharray:0.663307, 0.265322;paint-order:markers stroke fill"><path
     d="m 40.121064,34.490325 c 0,-5.8371 -3.478676,-9.374736 -8.077603,-10.259145 v -0.117921 c 4.422046,-1.650897 6.721509,-5.070612 6.721509,-9.374736 0,-5.5422963 -4.834769,-10.6129081 -13.325096,-10.6129081 -5.247493,0 -9.079933,1.3560939 -12.617569,3.7145179 l 3.006991,6.1319022 c 1.356094,-1.179212 3.8914,-3.00699 7.723839,-3.00699 4.363084,0 6.367745,2.417384 6.367745,5.070611 0,3.183873 -2.535306,5.306455 -6.603588,5.306455 h -4.363084 v 6.89839 h 4.304124 c 4.245163,0 7.90072,1.650897 7.90072,6.426706 0,3.537636 -3.00699,6.367745 -7.84176,6.367745 -3.537636,0 -6.426705,-1.474015 -8.195523,-2.712188 l -3.242833,6.426706 c 2.771148,1.650896 6.072942,3.124911 12.027962,3.124911 9.669539,0 16.214166,-6.072942 16.214166,-13.384056 z"
     id="path393" /></g></svg>
