<?xml version="1.0" encoding="UTF-8" standalone="no"?>
<svg
   width="66"
   height="66"
   viewBox="0 0 66 66"
   fill="none"
   version="1.1"
   id="svg3"
   sodipodi:docname="station_fermee.svg"
   inkscape:version="1.4.2 (ebf0e94, 2025-05-08)"
   xmlns:inkscape="http://www.inkscape.org/namespaces/inkscape"
   xmlns:sodipodi="http://sodipodi.sourceforge.net/DTD/sodipodi-0.dtd"
   xmlns="http://www.w3.org/2000/svg"
   xmlns:svg="http://www.w3.org/2000/svg">
  <defs
     id="defs3" />
  <sodipodi:namedview
     id="namedview3"
     pagecolor="#505050"
     bordercolor="#eeeeee"
     borderopacity="1"
     inkscape:showpageshadow="0"
     inkscape:pageopacity="0"
     inkscape:pagecheckerboard="0"
     inkscape:deskcolor="#d1d1d1"
     inkscape:zoom="12.121212"
     inkscape:cx="32.95875"
     inkscape:cy="33"
     inkscape:window-width="1920"
     inkscape:window-height="1008"
     inkscape:window-x="0"
     inkscape:window-y="0"
     inkscape:window-maximized="1"
     inkscape:current-layer="svg3" />
  <g
     id="g3">
    <path
       d="M60.3101 15.1891C60.9659 14.5333 60.9659 13.4701 60.3101 12.8143L53.1857 5.68991C52.5299 5.03413 51.4667 5.03413 50.8109 5.68991L34.1874 22.3134C33.5316 22.9692 32.4684 22.9692 31.8126 22.3134L15.1891 5.68991C14.5333 5.03413 13.4701 5.03413 12.8143 5.68991L5.68991 12.8143C5.03413 13.4701 5.03413 14.5333 5.68991 15.1891L22.3134 31.8126C22.9692 32.4684 22.9692 33.5316 22.3134 34.1874L5.68991 50.8109C5.03413 51.4667 5.03413 52.5299 5.68991 53.1857L12.8143 60.3101C13.4701 60.9659 14.5333 60.9659 15.1891 60.3101L31.8126 43.6866C32.4684 43.0308 33.5316 43.0308 34.1874 43.6866L50.8109 60.3101C51.4667 60.9659 52.5299 60.9659 53.1857 60.3101L60.3101 53.1857C60.9659 52.5299 60.9659 51.4667 60.3101 50.8109L43.6866 34.1874C43.0308 33.5316 43.0308 32.4684 43.6866 31.8126L60.3101 15.1891Z"
       fill="#EE1B29"
       id="path1" />
    <path
       fill-rule="evenodd"
       clip-rule="evenodd"
       d="m 56.1542,2.72143 7.1244,7.12437 c 2.2952,2.2952 2.2952,6.0165 0,8.3118 L 48.4361,33 63.2786,47.8424 c 2.2952,2.2953 2.2952,6.0166 0,8.3118 l -7.1244,7.1244 c -2.2952,2.2952 -6.0165,2.2952 -8.3118,0 L 33,48.4361 18.1576,63.2786 c -2.2953,2.2952 -6.0166,2.2952 -8.31181,0 L 2.72142,56.1542 c -2.295229,-2.2952 -2.295226,-6.0165 0,-8.3118 L 17.5639,33 2.72142,18.1576 c -2.295226,-2.2953 -2.295226,-6.0166 0,-8.31181 L 9.8458,2.72142 c 2.2952,-2.295228 6.0165,-2.295227 8.3118,0 L 33,17.5639 47.8424,2.72143 c 2.2953,-2.295236 6.0166,-2.295236 8.3118,0 z m 4.1559,10.09287 c 0.6558,0.6558 0.6558,1.719 0,2.3748 L 43.6866,31.8126 c -0.6558,0.6558 -0.6558,1.719 0,2.3748 l 16.6235,16.6235 c 0.6558,0.6558 0.6558,1.719 0,2.3748 l -7.1244,7.1244 c -0.6558,0.6558 -1.719,0.6558 -2.3748,0 L 34.1874,43.6866 c -0.6558,-0.6558 -1.719,-0.6558 -2.3748,0 L 15.1891,60.3101 c -0.6558,0.6558 -1.719,0.6558 -2.3748,0 L 5.68991,53.1857 c -0.65578,-0.6558 -0.65578,-1.719 0,-2.3748 L 22.3134,34.1874 c 0.6558,-0.6558 0.6558,-1.719 0,-2.3748 L 5.68991,15.1891 c -0.65578,-0.6558 -0.65578,-1.719 0,-2.3748 L 12.8143,5.68991 c 0.6558,-0.65578 1.719,-0.65578 2.3748,0 L 31.8126,22.3134 c 0.6558,0.6558 1.719,0.6558 2.3748,0 L 50.8109,5.68991 c 0.6558,-0.65578 1.719,-0.65578 2.3748,0 z"
       fill="#ffffff"
       id="path2" />
    <path
       d="M63.3228 9.8016L56.1984 2.67723C53.8788 0.357592 50.1179 0.357592 47.7982 2.67723L33 17.4755L18.2018 2.67723C15.8821 0.357591 12.1212 0.35759 9.8016 2.67723L2.67723 9.8016C0.357592 12.1212 0.357592 15.8821 2.67723 18.2018L17.4755 33L2.67723 47.7982C0.357592 50.1179 0.357589 53.8788 2.67723 56.1984L9.8016 63.3228C12.1212 65.6424 15.8821 65.6424 18.2018 63.3228L33 48.5245L47.7982 63.3228C50.1179 65.6424 53.8788 65.6424 56.1984 63.3228L63.3228 56.1984C65.6424 53.8788 65.6424 50.1179 63.3228 47.7982L48.5245 33L63.3228 18.2018C65.6424 15.8821 65.6424 12.1212 63.3228 9.8016Z"
       stroke="black"
       stroke-width="0.125"
       id="path3" />
  </g>
</svg>
