<?xml version="1.0" encoding="UTF-8" standalone="no"?>
<svg
   id="Layer_2"
   viewBox="0 0 250.00001 250.00001"
   version="1.1"
   sodipodi:docname="symbole_cable_RVB.svg"
   width="250"
   height="250"
   inkscape:version="1.4.2 (ebf0e94, 2025-05-08)"
   xmlns:inkscape="http://www.inkscape.org/namespaces/inkscape"
   xmlns:sodipodi="http://sodipodi.sourceforge.net/DTD/sodipodi-0.dtd"
   xmlns="http://www.w3.org/2000/svg"
   xmlns:svg="http://www.w3.org/2000/svg">
  <defs
     id="defs2" />
  <sodipodi:namedview
     id="namedview2"
     pagecolor="#505050"
     bordercolor="#eeeeee"
     borderopacity="1"
     inkscape:showpageshadow="0"
     inkscape:pageopacity="0"
     inkscape:pagecheckerboard="0"
     inkscape:deskcolor="#d1d1d1"
     showgrid="false"
     inkscape:zoom="2.8222678"
     inkscape:cx="141.55283"
     inkscape:cy="141.73"
     inkscape:window-width="1920"
     inkscape:window-height="1008"
     inkscape:window-x="0"
     inkscape:window-y="0"
     inkscape:window-maximized="1"
     inkscape:current-layer="Layer_2" />
  <g
     id="g3">
    <path
       fill="#ffffff"
       d="M 0,8.1228392 H 250 V 241.87716 H 0 Z"
       id="path10352"
       style="stroke-width:0.881959" />
    <g
       id="Layer_1-2"
       transform="scale(0.88195865)"
       style="stroke-width:1.13384">
      <g
         id="g2"
         style="stroke-width:1.13384">
        <path
           d="M 274.25,18.43 H 9.21 C 4.12,18.43 0,14.31 0,9.21 0,4.11 4.12,0 9.21,0 h 265.04 c 5.09,0 9.21,4.12 9.21,9.21 0,5.09 -4.12,9.22 -9.21,9.22 m 9.21,255.82 v 0 c 0,-5.09 -4.12,-9.21 -9.21,-9.21 H 9.21 c -5.09,0 -9.21,4.12 -9.21,9.21 0,5.09 4.12,9.21 9.21,9.21 h 265.04 c 5.09,0 9.21,-4.12 9.21,-9.21 M 230.98,62.08 146.55,76.97 v 36.42 h 38.9 c 11.2,0 21.21,6.69 25.5,17.03 5.7,13.69 8.59,28.23 8.59,43.2 0,14.97 -2.89,29.51 -8.6,43.2 -4.29,10.34 -14.29,17.03 -25.49,17.03 H 98.02 c -11.2,0 -21.21,-6.69 -25.51,-17.03 -5.7,-13.69 -8.59,-28.23 -8.59,-43.2 0,-14.97 2.89,-29.51 8.59,-43.21 4.29,-10.34 14.31,-17.03 25.51,-17.03 h 38.89 V 78.66 L 55.84,92.95 c -1.75,0.31 -3.42,-0.86 -3.72,-2.61 l -0.56,-3.17 c -0.31,-1.74 0.85,-3.41 2.6,-3.71 l 66.63,-11.75 -0.29,-1.67 c -0.76,-4.32 2.12,-8.44 6.44,-9.19 l 26.24,-4.63 c 4.32,-0.76 8.44,2.12 9.19,6.44 l 0.3,1.67 66.63,-11.75 c 1.74,-0.31 3.4,0.85 3.71,2.59 l 0.56,3.18 c 0.31,1.75 -0.86,3.41 -2.6,3.71 M 114.09,182.82 V 128.1 c 0,-1.09 -0.89,-1.98 -1.99,-1.98 H 98.01 c -6.03,0 -11.41,3.59 -13.72,9.16 -5.06,12.15 -7.62,25.04 -7.62,38.32 0,3.16 0.15,6.31 0.45,9.42 0.09,1.02 0.96,1.79 1.98,1.79 h 33.01 c 1.1,0 1.99,-0.89 1.99,-1.99 m 57.26,1.99 h 33.01 c 1.02,0 1.88,-0.77 1.98,-1.79 0.29,-3.11 0.45,-6.26 0.45,-9.42 0,-13.28 -2.56,-26.17 -7.62,-38.32 -2.31,-5.57 -7.69,-9.16 -13.72,-9.16 h -14.09 c -1.09,0 -1.98,0.89 -1.98,1.98 v 54.72 c 0,1.1 0.89,1.99 1.98,1.99 m -14.74,34.29 v -90.99 c 0,-1.09 -0.89,-1.98 -1.98,-1.98 h -25.8 c -1.09,0 -1.98,0.89 -1.98,1.98 v 90.99 c 0,1.09 0.89,1.98 1.98,1.98 h 25.8 c 1.09,0 1.98,-0.89 1.98,-1.98"
           id="path1"
           style="stroke-width:1.13384" />
        <path
           d="M 274.25,18.43 H 9.21 C 4.12,18.43 0,14.31 0,9.21 0,4.11 4.12,0 9.21,0 h 265.04 c 5.09,0 9.21,4.12 9.21,9.21 0,5.09 -4.12,9.22 -9.21,9.22 m 9.21,255.82 v 0 c 0,-5.09 -4.12,-9.21 -9.21,-9.21 H 9.21 c -5.09,0 -9.21,4.12 -9.21,9.21 0,5.09 4.12,9.21 9.21,9.21 h 265.04 c 5.09,0 9.21,-4.12 9.21,-9.21 M 230.98,62.08 146.55,76.97 v 36.42 h 38.9 c 11.2,0 21.21,6.69 25.5,17.03 5.7,13.69 8.59,28.23 8.59,43.2 0,14.97 -2.89,29.51 -8.6,43.2 -4.29,10.34 -14.29,17.03 -25.49,17.03 H 98.02 c -11.2,0 -21.21,-6.69 -25.51,-17.03 -5.7,-13.69 -8.59,-28.23 -8.59,-43.2 0,-14.97 2.89,-29.51 8.59,-43.21 4.29,-10.34 14.31,-17.03 25.51,-17.03 h 38.89 V 78.66 L 55.84,92.95 c -1.75,0.31 -3.42,-0.86 -3.72,-2.61 l -0.56,-3.17 c -0.31,-1.74 0.85,-3.41 2.6,-3.71 l 66.63,-11.75 -0.29,-1.67 c -0.76,-4.32 2.12,-8.44 6.44,-9.19 l 26.24,-4.63 c 4.32,-0.76 8.44,2.12 9.19,6.44 l 0.3,1.67 66.63,-11.75 c 1.74,-0.31 3.4,0.85 3.71,2.59 l 0.56,3.18 c 0.31,1.75 -0.86,3.41 -2.6,3.71 M 114.09,182.82 V 128.1 c 0,-1.09 -0.89,-1.98 -1.99,-1.98 H 98.01 c -6.03,0 -11.41,3.59 -13.72,9.16 -5.06,12.15 -7.62,25.04 -7.62,38.32 0,3.16 0.15,6.31 0.45,9.42 0.09,1.02 0.96,1.79 1.98,1.79 h 33.01 c 1.1,0 1.99,-0.89 1.99,-1.99 m 57.26,1.99 h 33.01 c 1.02,0 1.88,-0.77 1.98,-1.79 0.29,-3.11 0.45,-6.26 0.45,-9.42 0,-13.28 -2.56,-26.17 -7.62,-38.32 -2.31,-5.57 -7.69,-9.16 -13.72,-9.16 h -14.09 c -1.09,0 -1.98,0.89 -1.98,1.98 v 54.72 c 0,1.1 0.89,1.99 1.98,1.99 m -14.74,34.29 v -90.99 c 0,-1.09 -0.89,-1.98 -1.98,-1.98 h -25.8 c -1.09,0 -1.98,0.89 -1.98,1.98 v 90.99 c 0,1.09 0.89,1.98 1.98,1.98 h 25.8 c 1.09,0 1.98,-0.89 1.98,-1.98"
           id="path2"
           style="stroke-width:1.13384" />
      </g>
    </g>
  </g>
</svg>
